<?xml version="1.0" encoding="UTF-8"?>
<svg id="Layer_1" data-name="Layer 1" xmlns="http://www.w3.org/2000/svg" viewBox="0 0 40 40">
  <defs>
    <style>
      .cls-1 {
        fill: #0e0e1c;
      }

      .cls-1, .cls-2, .cls-3 {
        stroke-width: 0px;
      }

      .cls-2 {
        fill: #fff;
      }

      .cls-3 {
        fill: #ffda00;
      }
    </style>
  </defs>
  <g id="Line_48" data-name="Line 48">
    <path class="cls-1" d="m37.5,36.5H2.75c-.14,0-.25-.11-.25-.25s.11-.25.25-.25h34.75c.14,0,.25.11.25.25s-.11.25-.25.25Z"/>
  </g>
  <g>
    <g>
      <polygon class="cls-3" points="36.76 15.45 20 35.91 3.24 15.45 8.1 7.95 31.9 7.95 36.76 15.45"/>
      <path class="cls-1" d="m20,36.16c-.08,0-.15-.03-.19-.09L3.05,15.61c-.07-.08-.08-.2-.02-.29l4.86-7.5c.05-.07.12-.11.21-.11h23.79c.08,0,.16.04.21.11l4.86,7.5c.06.09.05.21-.02.29l-16.76,20.46c-.05.06-.12.09-.19.09ZM3.55,15.43l16.45,20.09,16.45-20.09-4.69-7.23H8.24l-4.69,7.23Z"/>
    </g>
    <g>
      <line class="cls-2" x1="3.24" y1="15.45" x2="36.76" y2="15.45"/>
      <path class="cls-1" d="m36.76,15.7H3.24c-.14,0-.25-.11-.25-.25s.11-.25.25-.25h33.51c.14,0,.25.11.25.25s-.11.25-.25.25Z"/>
    </g>
    <path class="cls-1" d="m20,36.16c-.09,0-.19-.05-.23-.15L10.49,15.55c-.03-.07-.03-.16.01-.23l4.36-7.5c.07-.12.22-.16.34-.09.12.07.16.22.09.34l-4.3,7.39,9.23,20.35c.06.13,0,.27-.12.33-.03.02-.07.02-.1.02Z"/>
    <path class="cls-1" d="m20,36.16s-.07,0-.1-.02c-.13-.06-.18-.21-.12-.33l9.23-20.35-4.3-7.39c-.07-.12-.03-.27.09-.34.12-.07.27-.03.34.09l4.36,7.5c.04.07.04.16.01.23l-9.28,20.46c-.04.09-.13.15-.23.15Z"/>
  </g>
</svg>