<svg width="120" height="30" viewBox="0 0 120 30" fill="none" xmlns="http://www.w3.org/2000/svg">
<path d="M44.6169 7.45872C40.4062 7.45872 37.3672 10.4169 37.3672 14.5485C37.3672 18.6802 40.4062 21.6384 44.6169 21.6384C48.8276 21.6384 51.8666 18.6802 51.8666 14.5485C51.8666 10.4169 48.8276 7.45872 44.6169 7.45872ZM46.4736 16.6144C45.9308 17.1695 45.1649 17.2872 44.6169 17.2872C43.6261 17.2872 43.0605 16.9218 42.7601 16.6144C42.2999 16.1418 42.0557 15.4286 42.0557 14.5503C42.0557 13.672 42.2999 12.9588 42.7601 12.4862C43.3029 11.9294 44.0688 11.8134 44.6169 11.8134C45.6094 11.8134 46.1733 12.1788 46.4736 12.4862C46.9339 12.9588 47.1781 13.672 47.1781 14.5503C47.1781 15.4286 46.9339 16.1418 46.4736 16.6144ZM25.7013 20.3824C25.9402 20.739 25.6837 21.2168 25.2551 21.2168H20.9443C20.7651 21.2168 20.5983 21.1272 20.4981 20.9796L17.5276 16.5406C17.3256 16.5581 17.2132 16.5581 17.2132 16.5581V20.6827C17.2132 20.9796 16.9725 21.2185 16.6774 21.2185H12.6354C12.3385 21.2185 12.0996 20.9779 12.0996 20.6827V3.49397C12.0996 3.1971 12.3403 2.95819 12.6354 2.95819H16.6774C16.9743 2.95819 17.2132 3.19885 17.2132 3.49397V13.2943C17.2132 13.2943 18.803 13.4366 19.2579 11.6606C19.5899 10.366 19.4705 9.21888 19.33 8.48284C19.2667 8.15259 19.5197 7.84694 19.857 7.84694H23.9534C24.2029 7.84694 24.4207 8.01909 24.4752 8.26326C24.5595 8.63391 24.6631 9.1978 24.6631 9.71074C24.6631 11.4358 24.1186 13.5262 22.0492 14.9684L25.6978 20.3824H25.7013ZM36.5627 8.00855V12.2508C36.5627 12.632 36.1744 12.8938 35.8213 12.7462C35.7968 12.7357 35.7739 12.7269 35.7511 12.7164C35.6299 12.6672 34.8587 12.3475 34.0893 12.3475C33.088 12.3475 31.9848 12.9272 31.9848 13.9232V20.6986C31.9848 20.9954 31.7442 21.2343 31.4491 21.2343H27.3947C27.0978 21.2343 26.8589 20.9937 26.8589 20.6986V8.37569C26.8589 8.07881 27.0996 7.83991 27.3947 7.83991H31.4491C31.7459 7.83991 31.9848 8.08057 31.9848 8.37569V8.92025C33.7731 7.34981 35.5877 7.45872 35.7581 7.45872C35.8653 7.45872 35.9724 7.46399 36.0761 7.47277C36.3519 7.49736 36.5627 7.731 36.5627 8.00679V8.00855ZM10.812 17.4646C10.812 19.1861 9.62976 21.6401 4.90789 21.6401C2.85789 21.6401 1.04678 20.804 0.279131 20.3929C0.0507667 20.2699 -0.054632 20.0012 0.0279303 19.7552L0.93963 17.0219C1.03976 16.7215 1.37879 16.5722 1.66688 16.7057C2.43102 17.0553 3.83458 17.6402 4.67953 17.6402C5.30841 17.6402 5.73 17.5067 5.69487 17.0553C5.65798 16.5827 5.33651 16.4791 3.86445 15.7132C2.61547 15.0632 0.424932 13.9952 0.424932 11.8134C0.424932 9.63169 2.51534 7.45872 6.35713 7.45872C7.93811 7.45872 9.33288 7.99098 9.99338 8.29137C10.2305 8.39852 10.3535 8.66378 10.285 8.91498L9.56827 11.5745C9.48923 11.8697 9.1783 12.0383 8.88845 11.9434C8.27363 11.7414 7.26355 11.4428 6.63995 11.4428C6.23065 11.4428 5.51218 11.5605 5.56488 12.0453C5.61582 12.5108 6.62062 12.9008 7.44273 13.3101C8.72157 13.946 10.8137 15.0422 10.8137 17.4628L10.812 17.4646ZM119.947 5.71964V24.2786L102.163 30.0018L84.3768 24.2786H84.3803L89.1408 24.2768L102.163 28.4664L118.486 23.2141V6.78417L101.882 1.44748L93.8767 3.88921L91.4859 3.14088L102.172 0L119.947 5.71964ZM78.1899 8.39677V11.0967C78.1899 11.3936 77.9492 11.6325 77.6541 11.6325H75.7798V16.3228C75.7798 17.0272 76.0925 17.4716 76.8601 17.4716C77.1324 17.4716 77.5399 17.3996 77.5399 17.3996C77.8755 17.2766 78.1916 17.5419 78.1916 17.909V20.7758C78.1916 21.0112 78.0388 21.2115 77.828 21.2835C77.4082 21.4381 76.1891 21.6419 75.3406 21.6419C72.3262 21.6419 70.6627 20.2049 70.6627 17.3592V11.6343H69.1519C68.8551 11.6343 68.6162 11.3936 68.6162 11.0985V8.39852C68.6162 8.10165 68.8568 7.86275 69.1519 7.86275H70.6627V5.74599C70.6627 5.44912 70.9033 5.21021 71.1984 5.21021H75.2458C75.5426 5.21021 75.7815 5.45087 75.7815 5.74599V7.86275H77.6559C77.9527 7.86275 78.1916 8.10341 78.1916 8.39852L78.1899 8.39677ZM96.0286 17.1273C95.7564 17.3188 95.5947 17.6315 95.5947 17.9652V19.1088C95.5947 19.6498 96.0339 20.089 96.575 20.089H103.271C104.123 20.089 104.814 19.3986 104.814 18.5467V18.3288C105.641 19.5146 106.939 20.2928 108.722 20.2928C112.09 20.2928 113.73 17.519 113.73 14.4554C113.73 11.3918 112.09 8.63567 108.722 8.63567C106.66 8.63567 105.248 9.67034 104.461 11.1758C103.851 9.64223 102.177 8.63567 99.8739 8.63567C98.4019 8.63567 96.6487 9.09416 95.3611 10.2904C95.2118 10.4292 95.1942 10.6593 95.3242 10.8174L96.7225 12.5214C96.8525 12.6795 97.0844 12.7093 97.2495 12.5864C98.0295 11.9961 98.8639 11.6483 99.8739 11.6483C100.67 11.6483 101.244 11.9874 101.244 12.5284C101.244 13.3505 100.782 13.7721 96.0286 17.1273ZM108.722 12.5688C109.451 12.5688 109.781 13.1731 109.781 14.4607C109.781 15.7483 109.451 16.3632 108.722 16.3632C107.993 16.3632 107.663 15.7483 107.663 14.4607C107.663 13.1731 107.993 12.5688 108.722 12.5688ZM103.728 14.9245C103.77 15.6956 103.919 16.4387 104.178 17.1132H100.805C102.187 16.3017 103.12 15.5973 103.728 14.9245ZM90.4285 21.2361H80.5052C80.2083 21.2361 79.9694 20.9954 79.9694 20.7003V19.0034C79.9694 18.0056 80.2944 17.0342 80.8934 16.2367L84.5929 11.6325H80.4454C80.1486 11.6325 79.9096 11.3918 79.9096 11.0967V8.39852C79.9096 8.10165 80.1503 7.86275 80.4454 7.86275H90.1562C90.453 7.86275 90.692 8.10341 90.692 8.39852V10.0849C90.692 11.0897 90.3634 12.0664 89.7556 12.8674L86.1932 17.4734H90.4285C90.7253 17.4734 90.9642 17.714 90.9642 18.0091V20.7021C90.9642 20.9989 90.7236 21.2378 90.4285 21.2378V21.2361ZM67.0932 8.39677V20.7003C67.0932 20.9972 66.8525 21.2361 66.5574 21.2361H62.503C62.2062 21.2361 61.9673 20.9954 61.9673 20.7003V20.1698C61.226 20.8215 59.9735 21.6384 58.3451 21.6384C55.0074 21.6384 53.2192 19.4865 53.2192 15.7027V8.39501C53.2192 8.09814 53.4598 7.85923 53.7549 7.85923H57.8093C58.1062 7.85923 58.3451 8.09989 58.3451 8.39501V15.1827C58.3451 16.7812 58.9195 17.4646 60.0929 17.4646C61.4807 17.4646 61.8988 16.465 61.9673 16.2701V8.39677C61.9673 8.09989 62.2079 7.86099 62.503 7.86099H66.5574C66.8543 7.86099 67.0932 8.10165 67.0932 8.39677Z" fill="url(#paint0_linear_111_42)"/>
<defs>
<linearGradient id="paint0_linear_111_42" x1="-0.000176008" y1="15" x2="119.947" y2="15" gradientUnits="userSpaceOnUse">
<stop offset="0.44" stop-color="#F68B24"/>
<stop offset="0.55" stop-color="#F28126"/>
<stop offset="0.73" stop-color="#E8682B"/>
<stop offset="0.95" stop-color="#D73F34"/>
<stop offset="1" stop-color="#D43637"/>
</linearGradient>
</defs>
</svg>
