<?xml version="1.0" encoding="UTF-8"?>
<svg id="Layer_1" data-name="Layer 1" xmlns="http://www.w3.org/2000/svg" viewBox="0 0 40 40">
  <defs>
    <style>
      .cls-1 {
        fill: #363636;
      }

      .cls-1, .cls-2, .cls-3, .cls-4, .cls-5 {
        stroke-width: 0px;
      }

      .cls-2 {
        fill: #0e0e1c;
      }

      .cls-3 {
        fill: #e0e0e0;
      }

      .cls-4 {
        fill: #fff;
      }

      .cls-5 {
        fill: #ffda00;
      }
    </style>
  </defs>
  <g id="Line_48" data-name="Line 48">
    <path class="cls-2" d="m37.5,36.5H2.75c-.14,0-.25-.11-.25-.25s.11-.25.25-.25h34.75c.14,0,.25.11.25.25s-.11.25-.25.25Z"/>
  </g>
  <g>
    <g>
      <path class="cls-5" d="m16.61,36.11c-1.45,0-2.7-1.04-2.96-2.47l-4.26-23.03c-.3-1.63.78-3.21,2.42-3.51l11.03-2.04c.19-.03.37-.05.55-.05,1.45,0,2.7,1.04,2.96,2.47l4.26,23.03c.3,1.63-.78,3.21-2.42,3.51l-11.03,2.04c-.19.03-.37.05-.55.05Z"/>
      <path class="cls-2" d="m23.39,5.26c1.31,0,2.47.93,2.71,2.26l4.26,23.03c.28,1.5-.71,2.94-2.22,3.22l-11.03,2.04c-.17.03-.34.05-.51.05-1.31,0-2.47-.93-2.71-2.26l-4.26-23.03c-.28-1.5.71-2.94,2.22-3.22l11.03-2.04c.17-.03.34-.05.51-.05m0-.5h0c-.2,0-.4.02-.6.05l-11.03,2.04c-.86.16-1.6.64-2.1,1.36-.49.72-.68,1.59-.52,2.44l4.26,23.03c.29,1.55,1.63,2.67,3.21,2.67.2,0,.4-.02.6-.05l11.03-2.04c1.77-.33,2.94-2.03,2.62-3.8l-4.26-23.03c-.29-1.55-1.63-2.67-3.21-2.67h0Z"/>
    </g>
    <g>
      <path class="cls-1" d="m20.47,17.26l-6.06,1.12c-1.02.19-2-.49-2.19-1.51l-1.12-6.06c-.19-1.02.49-2,1.51-2.19l6.06-1.12c1.02-.19,2,.49,2.19,1.51l1.12,6.06c.19,1.02-.49,2-1.51,2.19Z"/>
      <path class="cls-2" d="m14.06,18.67c-.43,0-.84-.13-1.2-.38-.47-.32-.78-.81-.89-1.37l-1.12-6.06c-.21-1.16.55-2.27,1.71-2.48l6.06-1.12c.56-.1,1.13.02,1.6.34s.78.81.89,1.37l1.12,6.06c.21,1.16-.55,2.27-1.71,2.48h0l-6.06,1.12c-.13.02-.26.04-.39.04Zm4.95-10.94c-.1,0-.2,0-.3.03l-6.06,1.12c-.88.16-1.47,1.02-1.31,1.9l1.12,6.06c.08.43.32.8.68,1.05.36.25.79.34,1.22.26l6.06-1.12c.88-.16,1.47-1.02,1.31-1.9l-1.12-6.06c-.08-.43-.32-.8-.68-1.05-.28-.19-.59-.29-.92-.29Zm1.46,9.54h0,0Z"/>
    </g>
    <g>
      <path class="cls-3" d="m13.99,13.18c-.96,0-1.78-.68-1.95-1.63-.1-.52.02-1.05.32-1.49.3-.44.75-.73,1.28-.83.12-.02.24-.03.36-.03.96,0,1.78.68,1.95,1.63.2,1.08-.52,2.12-1.59,2.31-.12.02-.24.03-.36.03Z"/>
      <path class="cls-2" d="m14,9.46c.82,0,1.55.58,1.71,1.42.17.94-.45,1.85-1.39,2.02h0c-.11.02-.21.03-.32.03-.82,0-1.55-.58-1.71-1.42-.17-.94.45-1.85,1.39-2.02h0c.11-.02.21-.03.32-.03m0-.5h0c-.14,0-.27.01-.41.04-1.21.22-2.02,1.39-1.79,2.61.2,1.06,1.12,1.83,2.2,1.83.14,0,.27-.01.41-.04.59-.11,1.1-.44,1.44-.93.34-.49.47-1.09.36-1.67-.2-1.06-1.12-1.83-2.2-1.83h0Z"/>
    </g>
    <g>
      <g>
        <path class="cls-3" d="m18.53,14.56c-.96,0-1.78-.68-1.95-1.63-.2-1.08.52-2.12,1.59-2.31.12-.02.24-.03.36-.03.96,0,1.78.68,1.95,1.63.1.52-.02,1.05-.32,1.49-.3.44-.75.73-1.28.83-.12.02-.24.03-.36.03Z"/>
        <path class="cls-2" d="m18.53,10.84c.82,0,1.55.58,1.71,1.42.17.94-.45,1.85-1.39,2.02-.11.02-.21.03-.32.03-.82,0-1.55-.58-1.71-1.42-.17-.94.45-1.85,1.39-2.02.11-.02.21-.03.32-.03m0-.5h0c-.14,0-.27.01-.41.04-1.21.22-2.02,1.39-1.79,2.61.2,1.06,1.12,1.83,2.2,1.83.14,0,.27-.01.41-.04.59-.11,1.1-.44,1.44-.93.34-.49.47-1.09.36-1.67-.2-1.06-1.12-1.83-2.2-1.83h0Z"/>
      </g>
      <g>
        <path class="cls-4" d="m18.77,13.86h0c-.71.13-1.39-.34-1.52-1.04h0c-.13-.71.34-1.39,1.04-1.52h0c.71-.13,1.39.34,1.52,1.04h0c.13.71-.34,1.39-1.04,1.52Z"/>
        <path class="cls-2" d="m18.53,14.13c-.73,0-1.39-.52-1.53-1.27-.15-.84.4-1.65,1.25-1.81.85-.16,1.65.4,1.81,1.24.16.84-.4,1.65-1.24,1.81h0c-.09.02-.19.03-.28.03Zm.24-.27h0,0Zm-.23-2.33c-.06,0-.13,0-.19.02-.57.11-.95.66-.84,1.23.11.57.66.95,1.23.84h0c.57-.11.95-.66.84-1.23-.05-.28-.21-.52-.44-.68-.18-.12-.38-.19-.59-.19Z"/>
      </g>
    </g>
    <g>
      <path class="cls-3" d="m14.79,17.48c-.96,0-1.78-.68-1.95-1.63-.2-1.08.52-2.12,1.59-2.31.12-.02.24-.03.36-.03.96,0,1.78.68,1.95,1.63.1.52-.02,1.05-.32,1.49-.3.44-.75.73-1.27.83-.12.02-.24.03-.36.03Z"/>
      <path class="cls-2" d="m14.79,13.75c.82,0,1.55.58,1.71,1.42.17.94-.45,1.85-1.39,2.02h0c-.11.02-.21.03-.32.03-.82,0-1.55-.58-1.71-1.42-.17-.94.45-1.85,1.39-2.02.11-.02.21-.03.32-.03m0-.5h0c-.14,0-.27.01-.41.04-.59.11-1.1.44-1.44.93-.34.49-.47,1.09-.36,1.67.2,1.06,1.12,1.83,2.2,1.83.14,0,.27-.01.41-.04,1.21-.22,2.02-1.39,1.79-2.61-.2-1.06-1.12-1.83-2.2-1.83h0Z"/>
    </g>
    <g>
      <path class="cls-4" d="m14.23,12.47h0c-.71.13-1.39-.34-1.52-1.04h0c-.13-.71.34-1.39,1.04-1.52h0c.71-.13,1.39.34,1.52,1.04h0c.13.71-.34,1.39-1.04,1.52Z"/>
      <path class="cls-2" d="m13.99,12.75c-.73,0-1.39-.52-1.53-1.27-.08-.41.01-.82.25-1.16.24-.34.59-.57,1-.65.84-.15,1.65.4,1.81,1.24.16.84-.4,1.65-1.24,1.81h0c-.09.02-.19.03-.28.03Zm.24-.27h0,0Zm-.24-2.33c-.06,0-.13,0-.19.02-.28.05-.52.21-.68.44-.16.23-.22.51-.17.79.11.57.65.96,1.23.84.57-.11.95-.66.84-1.23-.09-.51-.54-.86-1.03-.86Z"/>
    </g>
    <g>
      <path class="cls-4" d="m15.02,16.77h0c-.71.13-1.39-.34-1.52-1.04h0c-.13-.71.34-1.39,1.04-1.52h0c.71-.13,1.39.34,1.52,1.04h0c.13.71-.34,1.39-1.04,1.52Z"/>
      <path class="cls-2" d="m14.78,17.04c-.31,0-.62-.09-.88-.27-.34-.23-.57-.59-.65-1-.08-.41.01-.82.25-1.16.24-.34.59-.57,1-.65.41-.08.82.01,1.16.25.34.23.57.59.65,1,.16.84-.4,1.65-1.24,1.81h0c-.1.02-.19.03-.29.03Zm.24-.27h0,0Zm-.23-2.33c-.06,0-.13,0-.19.02-.28.05-.52.21-.68.44-.16.23-.22.51-.17.79.05.28.21.52.44.68.23.16.51.22.79.17h0c.57-.11.95-.66.84-1.23-.05-.28-.21-.52-.44-.68-.18-.12-.38-.19-.59-.19Z"/>
    </g>
  </g>
</svg>