<?xml version="1.0" encoding="UTF-8"?>
<svg id="Layer_1" data-name="Layer 1" xmlns="http://www.w3.org/2000/svg" viewBox="0 0 40 40">
  <defs>
    <style>
      .cls-1 {
        fill: #ff8000;
      }

      .cls-2 {
        fill: #060924;
      }

      .cls-3 {
        fill: #fdd203;
      }

      .cls-4 {
        fill: #fff;
      }

      .cls-5 {
        fill: #060923;
      }
    </style>
  </defs>
  <g>
    <g>
      <rect class="cls-4" x="20.94" y="10.49" width="1.57" height="24.87" transform="translate(-3.43 3.83) rotate(-9.34)"/>
      <g>
        <path class="cls-4" d="M18.81,4.78C10.45,6.15,3.93,10.54,2.46,15.32c-.07.23-.03.48.09.69.75,1.18,2.27,1.85,3.89,1.59,1.68-.28,2.94-1.48,3.21-2.91.72,1.29,2.33,2.04,4.04,1.76,1.52-.25,2.71-1.26,3.14-2.51.8,1.02,2.22,1.59,3.71,1.34,1.61-.26,2.83-1.38,3.17-2.73.75,1.17,2.27,1.84,3.88,1.57s2.83-1.38,3.17-2.73c.75,1.17,2.27,1.84,3.88,1.57s2.84-1.39,3.17-2.75c.06-.23.01-.48-.13-.68-2.92-4.06-10.51-6.13-18.86-4.75Z"/>
        <path class="cls-5" d="M5.76,17.9c-1.4,0-2.71-.66-3.41-1.76-.17-.27-.22-.59-.12-.89,1.53-4.96,8.33-9.37,16.55-10.72h0c8.22-1.35,16.07.64,19.11,4.85.18.25.25.58.17.89-.36,1.48-1.72,2.66-3.38,2.93-1.5.25-2.94-.25-3.83-1.29-.51,1.26-1.73,2.2-3.22,2.44-1.5.25-2.94-.25-3.83-1.29-.51,1.26-1.73,2.2-3.22,2.44-1.41.23-2.77-.2-3.68-1.12-.57,1.17-1.77,2.05-3.17,2.28-1.57.26-3.09-.3-3.98-1.42-.48,1.31-1.73,2.32-3.27,2.57-.24.04-.49.06-.73.06ZM23.87,4.61c-1.63,0-3.31.14-5.01.42C10.81,6.35,4.17,10.61,2.7,15.4c-.05.16-.03.33.07.48.71,1.12,2.18,1.71,3.63,1.47,1.54-.25,2.75-1.34,3-2.71.02-.1.1-.18.21-.2.1-.02.21.03.26.12.7,1.24,2.21,1.89,3.78,1.64,1.38-.23,2.53-1.14,2.94-2.34.03-.09.1-.15.2-.17.09-.01.18.02.24.09.76.98,2.12,1.47,3.47,1.25,1.45-.24,2.65-1.26,2.97-2.55.02-.1.1-.17.2-.19.1-.02.2.03.25.11.72,1.11,2.17,1.7,3.63,1.46,1.45-.24,2.65-1.26,2.97-2.55.02-.1.1-.17.2-.19.1-.02.2.03.25.11.72,1.11,2.17,1.7,3.63,1.46,1.46-.24,2.66-1.27,2.97-2.56.04-.17,0-.34-.09-.47-2.31-3.2-7.55-5.07-13.61-5.07ZM18.81,4.78h0,0Z"/>
      </g>
      <path d="M2.41,15.85c-.11,0-.21-.08-.24-.19-.03-.13.05-.27.18-.3,11.38-2.76,23.08-4.7,34.75-5.77l.71-.06c.16-.01.26.09.27.23s-.09.26-.23.27l-.71.06c-11.65,1.06-23.32,3-34.68,5.76-.02,0-.04,0-.06,0Z"/>
      <g>
        <path class="cls-3" d="M15.22,5.58c-3.57,1.24-5.93,4.67-5.66,8.4-2.39.5-4.77,1.04-7.14,1.61,0-.09,0-.18.04-.27,1.25-4.07,6.17-7.86,12.76-9.74Z"/>
        <path class="cls-3" d="M9.56,13.98c.02.24.04.48.08.72-.28,1.42-1.54,2.62-3.2,2.89s-3.14-.41-3.89-1.59c-.08-.12-.12-.27-.13-.41,2.36-.57,4.74-1.11,7.14-1.61Z"/>
        <path class="cls-4" d="M16.65,12.61h0c.03.34.08.68.13,1.02.02.1.03.21.05.31,0,0,0,0,0,0,0,0,0,.01,0,.02-.43,1.24-1.62,2.24-3.13,2.49-1.7.28-3.31-.47-4.04-1.76,0,0,0,.01,0,.02-.04-.24-.07-.48-.08-.72,2.35-.49,4.71-.95,7.08-1.38h0Z"/>
        <path class="cls-3" d="M23.71,12.56s0,0,0-.01c-.34,1.35-1.56,2.47-3.17,2.73-1.5.25-2.91-.32-3.71-1.34,0-.05-.02-.1-.02-.16,0-.05-.02-.1-.02-.15h0s-.01-.09-.02-.13c0-.04-.01-.07-.01-.11,0-.04-.01-.08-.02-.12,0-.05-.01-.1-.02-.15,0-.01,0-.02,0-.03,0-.05-.01-.1-.02-.15,0-.06-.01-.11-.02-.16,0-.05-.01-.1-.02-.16h0s0,0,0,0c2.28-.41,4.57-.78,6.86-1.13h0c.07.31.13.62.18.94h0s.02.09.02.14Z"/>
        <path class="cls-4" d="M30.76,11.39s0,0,0,0c-.34,1.35-1.56,2.47-3.17,2.73s-3.11-.4-3.87-1.55c0,0,0,0,0,0,0-.04-.02-.09-.02-.13h0c-.02-.1-.03-.2-.05-.3,0-.04-.01-.07-.02-.11-.01-.05-.02-.11-.03-.16,0-.04-.02-.08-.02-.12,0-.03-.01-.07-.02-.1-.01-.05-.02-.11-.03-.16h0s0,0,0,0c2.35-.35,4.7-.67,7.05-.95.08.28.14.57.19.86Z"/>
        <path class="cls-3" d="M37.8,10.21c-.33,1.36-1.56,2.48-3.17,2.75s-3.12-.4-3.87-1.57h0c-.05-.29-.12-.58-.19-.86,0,0,.01,0,.02,0,2.18-.26,4.37-.49,6.55-.69l.67-.06c.04.14.04.29,0,.43Z"/>
        <path class="cls-3" d="M37.79,9.78l-.67.06c-2.18.2-4.36.43-6.55.69,0,0-.01,0-.02,0-.97-3.47-4.02-5.91-7.53-6.17,6.6-.19,12.22,1.81,14.64,5.17.05.08.09.16.12.25Z"/>
        <path class="cls-3" d="M23.51,11.48h0c-2.29.34-4.58.72-6.86,1.13h0c-.38-3.7.2-6.78,1.45-7.7h0c.23-.04.47-.09.71-.12.28-.05.57-.09.85-.13h0c1.5.48,3.05,3.22,3.84,6.83Z"/>
      </g>
    </g>
    <path class="cls-1" d="M13.62,36.24l5.04-4.09c1.11-.9,2.72-.85,3.76.13l2,1.86.55-.59c1.04-1.13,2.78-1.24,3.96-.25l3.7,2.96H13.62Z"/>
  </g>
  <g>
    <line class="cls-1" x1="24.42" y1="34.14" x2="25.29" y2="35"/>
    <path class="cls-2" d="M38.03,9.71s0,0,0,0c-.03-.12-.09-.23-.16-.32-2.48-3.44-8.2-5.46-14.85-5.27-1.12.03-2.26.13-3.4.29-.28.04-.57.08-.86.13-.24.04-.48.08-.71.13-.97.18-1.94.41-2.9.68,0,0,0,0,0,0,0,0,0,0,0,0,0,0,0,0,0,0,0,0,0,0,0,0-6.67,1.91-11.62,5.71-12.92,9.91-.04.12-.05.24-.05.36,0,0,0,0,0,0,0,0,0,0,0,0,0,0,0,0,0,0s0,0,0,0c0,.19.07.37.17.54.7,1.1,2.01,1.76,3.41,1.76.24,0,.48-.02.73-.06,1.54-.25,2.79-1.26,3.26-2.58.74.94,1.94,1.49,3.23,1.49.25,0,.5-.02.75-.06,1.43-.24,2.61-1.11,3.18-2.32.66.68,1.57,1.09,2.56,1.18l2.66,16.19c-1.11-.69-2.58-.63-3.62.22l-4.98,4.04H2.75c-.14,0-.25.11-.25.25s.11.25.25.25h34.75c.14,0,.25-.11.25-.25s-.11-.25-.25-.25h-4.78l-3.63-2.9c-1.28-1.07-3.17-.95-4.3.27l-.25.27-3.02-18.38c1.05-.42,1.87-1.2,2.27-2.19.74.86,1.87,1.36,3.09,1.36.25,0,.5-.02.75-.06,1.49-.25,2.7-1.19,3.21-2.45.74.86,1.87,1.35,3.09,1.35.25,0,.5-.02.75-.06,1.65-.27,3.01-1.45,3.38-2.93h0c.04-.19.04-.38-.01-.56ZM6.4,17.35c-1.46.24-2.92-.35-3.63-1.47-.02-.03-.03-.06-.05-.09,2.18-.53,4.4-1.03,6.62-1.5.01.14.03.27.05.41-.28,1.34-1.48,2.4-2.99,2.65ZM9.69,10.91c-.08.24-.14.48-.2.73-.01.06-.03.11-.04.17-.06.29-.1.59-.13.89,0,.07,0,.13-.01.2-.02.25-.02.5-.01.75,0,.05,0,.09,0,.14-1.11.23-2.22.48-3.33.73-.26.06-.51.12-.76.18-.83.19-1.65.38-2.47.58,1.1-3.35,4.82-6.53,9.83-8.52-.02.02-.04.04-.07.06-.21.17-.41.35-.6.53-.05.05-.11.1-.16.16-.42.43-.8.9-1.12,1.41-.04.06-.08.12-.11.18-.14.23-.27.47-.39.71-.01.03-.03.06-.04.09-.13.27-.24.55-.33.83-.02.07-.04.13-.06.2ZM13.65,16.2c-1.55.25-3.06-.39-3.76-1.61-.02-.13-.03-.27-.05-.4,1.09-.23,2.18-.45,3.28-.66.21-.04.42-.08.63-.12.89-.17,1.78-.34,2.68-.5,0,.02,0,.05,0,.07l.02.16h0s0,.05,0,.07h0s.03.23.03.23c.01.09.02.17.03.26l.04.23c-.43,1.17-1.57,2.06-2.92,2.29ZM16.72,6.84c-.06.2-.11.42-.16.64-.02.11-.04.23-.06.35-.04.21-.07.43-.1.66-.02.13-.03.26-.04.39-.02.24-.04.5-.05.75,0,.13-.01.25-.02.38,0,.35,0,.7,0,1.07,0,.05,0,.09,0,.14.02.38.04.77.08,1.17-1.1.2-2.2.4-3.31.62-.18.04-.36.07-.54.11-.91.18-1.83.36-2.73.55,0-.03,0-.06,0-.08,0-.38,0-.76.06-1.14,0-.05.01-.1.02-.15.05-.37.13-.74.24-1.1.01-.05.03-.1.05-.14.11-.36.25-.7.41-1.04.02-.05.05-.09.07-.13.17-.33.35-.65.56-.96.03-.04.06-.08.09-.12.22-.3.45-.59.71-.86.03-.04.07-.07.11-.11.26-.27.54-.52.85-.75.04-.03.08-.05.11-.08.31-.23.64-.45.98-.63.03-.02.06-.03.09-.04.36-.19.73-.35,1.11-.49.01,0,.03-.01.04-.02.68-.2,1.38-.37,2.09-.52-.09.13-.16.27-.24.42-.02.04-.05.08-.07.12-.11.23-.21.48-.3.75-.03.08-.04.16-.07.25ZM16.88,12.31c-.19-2.13-.05-4.08.35-5.45.02-.06.04-.1.06-.16.07-.2.14-.4.22-.58.04-.09.09-.16.14-.24.06-.12.13-.24.2-.34.06-.08.12-.13.18-.2.07-.07.13-.15.2-.21.21-.04.42-.08.63-.11.26-.04.52-.08.77-.12.09.03.17.09.26.13.08.04.16.07.24.13.1.07.2.17.3.26.07.06.14.11.21.19.12.13.24.28.35.43.05.06.1.12.15.19.14.19.27.41.4.64.03.05.05.08.08.13.15.27.3.56.44.86,0,.02.01.03.02.04.14.3.27.62.39.95,0,.03.02.05.03.08.11.29.21.6.3.91.02.08.05.15.07.22.12.39.22.79.32,1.2-2.1.32-4.22.67-6.32,1.04ZM25.15,33.71c.95-1.03,2.54-1.13,3.62-.23l3.14,2.51H14.32s4.5-3.65,4.5-3.65c1.01-.82,2.48-.77,3.44.11l2,1.86.86.86s.11.07.18.07.13-.02.18-.07c.1-.1.1-.26,0-.35l-.7-.7.38-.42ZM23.99,33.39l-1.28-1.19-2.74-16.63c.2,0,.4-.02.6-.05.16-.03.31-.06.46-.1l2.96,17.98ZM20.5,15.03c-1.33.22-2.66-.25-3.43-1.2h0s-.06-.42-.06-.42c-.03-.21-.05-.41-.08-.6.07-.01.15-.03.22-.04,1.99-.35,4.01-.68,6-.98.05,0,.11-.02.16-.02l.15.76c-.34,1.27-1.52,2.27-2.96,2.51ZM23.7,11.2c-.09-.38-.18-.75-.29-1.11,0-.02-.01-.04-.02-.06-.11-.38-.23-.74-.35-1.09-.04-.12-.09-.24-.14-.36-.09-.24-.19-.47-.29-.7-.06-.13-.11-.25-.17-.37-.1-.21-.2-.4-.3-.59-.06-.11-.12-.22-.18-.32-.12-.2-.23-.38-.35-.55-.05-.07-.1-.15-.15-.22-.17-.23-.35-.44-.53-.62-.03-.03-.07-.06-.1-.09-.12-.12-.25-.24-.37-.33.87-.1,1.72-.16,2.55-.18.42.03.84.1,1.24.19.14.03.27.09.4.12.26.08.53.15.78.25.16.06.3.15.45.22.22.1.44.2.65.32.15.09.3.2.44.3.19.13.38.25.56.39.14.12.27.25.41.38.16.15.33.29.48.46.13.14.24.3.36.45.14.17.28.33.4.51.11.16.2.34.3.51.11.19.22.37.31.56.09.18.15.38.23.57.06.16.12.31.17.47-.1.01-.2.03-.29.04-1.98.24-3.99.51-6,.81-.08.01-.15.02-.23.03ZM27.54,13.87c-1.45.24-2.85-.31-3.59-1.41v-.09s-.03-.07-.03-.1l-.09-.46s-.02-.09-.02-.12h0c1.04-.16,2.08-.31,3.12-.45.05,0,.11-.02.16-.02,1.1-.15,2.2-.29,3.28-.42.05.19.09.37.13.57-.34,1.26-1.52,2.26-2.96,2.5ZM30.74,10.26c-.11-.35-.24-.69-.39-1.02-.03-.07-.07-.13-.1-.2-.15-.3-.31-.59-.48-.87-.06-.1-.13-.2-.2-.3-.18-.26-.37-.5-.57-.74-.06-.07-.11-.14-.18-.21-.27-.3-.56-.58-.87-.83-.04-.03-.08-.06-.12-.09-.28-.22-.57-.42-.87-.61-.08-.05-.17-.1-.25-.15-.3-.17-.61-.32-.93-.46-.06-.02-.12-.05-.17-.08-.05-.02-.1-.05-.15-.06,5.37.29,9.81,2.09,11.93,4.92l-.28.03c-2.1.19-4.24.42-6.36.67ZM37.56,10.15c-.32,1.29-1.51,2.32-2.97,2.56-1.42.23-2.87-.33-3.59-1.42-.03-.19-.07-.37-.12-.55,2.09-.25,4.19-.47,6.27-.66l.43-.04s0,.07-.02.1Z"/>
  </g>
  <path d="M21.06,14.99c-.17.02-.35.05-.52.06,0,0-.01.01-.02.01-.19.08-.37.16-.56.24-.03.01-.07,0-.1.02.07.41.14.81.18,1.23.45.03.89,0,1.31-.06l-.29-1.5Z"/>
</svg>