<?xml version="1.0" encoding="UTF-8"?>
<svg id="Layer_1" data-name="Layer 1" xmlns="http://www.w3.org/2000/svg" xmlns:xlink="http://www.w3.org/1999/xlink" viewBox="0 0 40 40">
  <defs>
    <style>
      .cls-1 {
        clip-path: url(#clippath);
      }

      .cls-2 {
        fill: none;
      }

      .cls-2, .cls-3, .cls-4, .cls-5, .cls-6, .cls-7, .cls-8 {
        stroke-width: 0px;
      }

      .cls-4 {
        fill: #0e0e1c;
      }

      .cls-5 {
        fill: #fff;
      }

      .cls-6 {
        fill: #f68b24;
      }

      .cls-7 {
        fill: #ffda00;
      }

      .cls-8 {
        fill: #e6e6e6;
      }
    </style>
    <clipPath id="clippath">
      <rect class="cls-2" x="-2.59" y="1.63" width="25.77" height="23.23"/>
    </clipPath>
  </defs>
  <g class="cls-1">
    <g>
      <g>
        <rect class="cls-6" x="8.11" y="4.46" width="8.97" height="33.49" rx="4.49" ry="4.49" transform="translate(-3.41 2.44) rotate(-9.75)"/>
        <path class="cls-4" d="m14.67,38.03c-2.26,0-4.27-1.63-4.67-3.94L5.85,9.93c-.44-2.57,1.29-5.03,3.87-5.47,2.57-.45,5.03,1.29,5.47,3.87l4.15,24.16c.21,1.25-.07,2.5-.8,3.54s-1.82,1.72-3.07,1.93c-.27.05-.54.07-.8.07ZM10.53,4.89c-.24,0-.48.02-.72.06-2.3.4-3.85,2.59-3.46,4.89l4.15,24.16c.4,2.3,2.6,3.86,4.89,3.46h0c1.12-.19,2.09-.81,2.74-1.73s.91-2.05.72-3.16l-4.15-24.16c-.35-2.06-2.15-3.52-4.17-3.52Z"/>
      </g>
      <g>
        <path class="cls-6" d="m11.46,10.17h4.08v3.32h-4.08c-.92,0-1.66-.74-1.66-1.66h0c0-.92.74-1.66,1.66-1.66Z" transform="translate(-1.82 2.32) rotate(-9.75)"/>
        <path class="cls-4" d="m11.47,13.95c-.91,0-1.72-.66-1.88-1.59-.09-.5.03-1.01.32-1.43.29-.42.73-.69,1.24-.78l4.02-.69c.07-.01.13,0,.19.04.05.04.09.1.1.16l.56,3.27c.02.14-.07.27-.2.29l-4.02.69c-.11.02-.22.03-.32.03Zm3.54-3.95l-3.77.65c-.37.06-.7.27-.91.58-.22.31-.3.68-.24,1.05.13.77.86,1.29,1.63,1.15h0l3.77-.65-.48-2.78Z"/>
      </g>
      <g>
        <path class="cls-6" d="m12.41,15.74h4.08v3.32h-4.08c-.92,0-1.66-.74-1.66-1.66h0c0-.92.74-1.66,1.66-1.66Z" transform="translate(-2.75 2.56) rotate(-9.75)"/>
        <path class="cls-4" d="m12.43,19.52c-.39,0-.77-.12-1.1-.35-.42-.29-.69-.73-.78-1.24-.09-.5.03-1.01.32-1.43.29-.42.73-.69,1.24-.78l4.02-.69c.07-.01.13,0,.19.04.05.04.09.1.1.16l.56,3.27c.01.07,0,.13-.04.19-.04.05-.1.09-.16.1l-4.02.69c-.11.02-.22.03-.33.03Zm3.54-3.95l-3.77.65c-.37.06-.7.27-.91.58-.22.31-.3.68-.24,1.05.06.37.27.7.58.91.31.22.68.3,1.05.24h0l3.77-.65-.48-2.78Z"/>
      </g>
      <g>
        <path class="cls-6" d="m12.95,23.78h4.93v4.02h-4.93c-1.11,0-2.01-.9-2.01-2.01h0c0-1.11.9-2.01,2.01-2.01Z" transform="translate(-4.16 2.81) rotate(-9.75)"/>
        <path class="cls-4" d="m12.97,28.3c-.46,0-.91-.14-1.3-.42-.49-.35-.82-.87-.92-1.46-.1-.59.03-1.19.38-1.69s.87-.82,1.46-.92l4.86-.84c.06-.01.13,0,.19.04.05.04.09.1.1.16l.68,3.96c.02.14-.07.27-.2.29l-4.86.84c-.13.02-.26.03-.39.03Zm4.32-4.79l-4.62.79c-.46.08-.87.33-1.14.72-.27.38-.38.85-.3,1.31.08.46.33.87.72,1.14.38.27.85.38,1.31.3h0l4.62-.79-.59-3.47Z"/>
      </g>
      <g>
        <path class="cls-6" d="m14.11,30.51h4.93v4.02h-4.93c-1.11,0-2.01-.9-2.01-2.01h0c0-1.11.9-2.01,2.01-2.01Z" transform="translate(-5.28 3.11) rotate(-9.75)"/>
        <path class="cls-4" d="m14.12,35.03c-.46,0-.91-.14-1.3-.41-.49-.35-.82-.87-.92-1.46-.21-1.23.62-2.4,1.84-2.61l4.86-.84c.13-.02.26.07.29.2l.68,3.96c.01.07,0,.13-.04.19-.04.05-.1.09-.16.1l-4.86.84c-.13.02-.26.03-.39.03Zm4.32-4.79l-4.62.79c-.96.16-1.6,1.08-1.44,2.03.08.46.33.87.72,1.14.38.27.85.38,1.31.3h0l4.62-.79-.6-3.47Z"/>
      </g>
    </g>
  </g>
  <g>
    <rect class="cls-8" x="24.42" y="9.5" width="9.7" height="16.74" transform="translate(1.36 -2.06) rotate(4.12)"/>
    <path class="cls-4" d="m33.51,26.81s-.01,0-.02,0l-9.67-.7c-.07,0-.13-.04-.17-.09-.04-.05-.06-.12-.06-.18l1.2-16.69c0-.07.04-.13.08-.17.05-.04.11-.07.18-.06l9.67.7c.14.01.24.13.23.27l-1.2,16.69c0,.13-.12.23-.25.23Zm-9.41-1.18l9.17.66,1.17-16.2-9.17-.66-1.17,16.2Z"/>
  </g>
  <g>
    <rect class="cls-5" x="21.91" y="9.32" width="9.7" height="16.74" transform="translate(1.34 -1.88) rotate(4.12)"/>
    <path class="cls-4" d="m30.99,26.63s-.01,0-.02,0l-9.67-.7c-.14-.01-.24-.13-.23-.27l1.2-16.69c0-.07.04-.13.08-.17s.12-.07.18-.06l9.67.7c.14.01.24.13.23.27l-1.2,16.69c0,.07-.04.13-.08.17-.05.04-.1.06-.16.06Zm-9.41-1.18l9.17.66,1.17-16.2-9.17-.66-1.17,16.2Z"/>
  </g>
  <g>
    <g>
      <circle class="cls-6" cx="19.49" cy="18.16" r="4.35"/>
      <path class="cls-4" d="m19.48,22.76c-1.18,0-2.29-.44-3.15-1.25-.89-.84-1.41-1.98-1.44-3.21-.08-2.54,1.93-4.66,4.46-4.74.05,0,.09,0,.14,0,2.47,0,4.52,1.98,4.6,4.46h0c.04,1.23-.41,2.4-1.25,3.29s-1.98,1.41-3.21,1.44c-.05,0-.09,0-.14,0Zm0-8.7s-.08,0-.12,0c-2.26.07-4.05,1.96-3.98,4.22.03,1.09.49,2.11,1.29,2.86.8.75,1.84,1.15,2.93,1.11,1.1-.03,2.11-.49,2.86-1.29.75-.8,1.15-1.84,1.11-2.94h0c-.07-2.22-1.89-3.98-4.1-3.98Z"/>
    </g>
    <g>
      <path class="cls-5" d="m20.65,16.44c-.55-1.02-.4-1.91.2-2.23s1.43.04,1.98,1.06-.09,2.43-.09,2.43c0,0-1.53-.24-2.09-1.26Z"/>
      <path class="cls-4" d="m22.74,17.94s-.03,0-.04,0c-.07-.01-1.66-.27-2.27-1.38-.59-1.1-.47-2.16.3-2.57.77-.42,1.72.06,2.32,1.16.6,1.11-.05,2.59-.08,2.65-.04.09-.13.15-.23.15Zm-1.42-3.61c-.12,0-.24.03-.35.09-.51.28-.55,1.06-.1,1.9.38.69,1.3.99,1.71,1.09.14-.39.4-1.33.03-2.03-.36-.66-.85-1.04-1.29-1.04Z"/>
    </g>
    <g>
      <path class="cls-5" d="m18.39,14.03c.97-1.03,2.06-1.2,2.67-.63s.5,1.67-.47,2.71-2.86.83-2.86.83c0,0-.31-1.88.66-2.91Z"/>
      <path class="cls-4" d="m18.12,17.21c-.24,0-.4-.02-.42-.02-.11-.01-.2-.1-.22-.21-.01-.08-.32-2.01.72-3.12h0c.5-.53,1.05-.87,1.6-.99.55-.12,1.06,0,1.42.35.36.34.52.84.43,1.4-.08.55-.39,1.13-.89,1.66-.76.81-2,.93-2.65.93Zm-.17-.5c.49.02,1.76-.02,2.46-.76.43-.46.69-.94.76-1.39.06-.4-.04-.73-.28-.96-.24-.23-.59-.31-.98-.23-.45.1-.91.39-1.34.84h0c-.7.75-.66,2.01-.62,2.5Zm.44-2.67h0,0Z"/>
    </g>
    <path class="cls-4" d="m17.86,17c-.06,0-.12-.02-.17-.07-.1-.09-.11-.25-.01-.35l1.93-2.09c.09-.1.25-.11.35-.01.1.09.11.25.01.35l-1.93,2.09c-.05.05-.12.08-.18.08Z"/>
  </g>
  <g id="Line_48" data-name="Line 48">
    <path class="cls-4" d="m37.5,36.5H2.75c-.14,0-.25-.11-.25-.25s.11-.25.25-.25h34.75c.14,0,.25.11.25.25s-.11.25-.25.25Z"/>
  </g>
  <g>
    <path class="cls-7" d="m26.25,36.25h-15.71l-3.11-18.67c4.51,1.58,16.02,1.56,21.93,0l-3.11,18.67Z"/>
    <path class="cls-3" d="m26.25,36.5h-15.71c-.12,0-.23-.09-.25-.21l-3.11-18.67c-.01-.09.02-.18.09-.23.07-.06.16-.07.24-.04,4.45,1.57,15.86,1.56,21.79,0,.08-.02.17,0,.23.06.06.06.09.14.08.23l-3.11,18.67c-.02.12-.12.21-.25.21Zm-15.5-.5h15.29l3.01-18.08c-5.92,1.45-16.64,1.46-21.31.03l3.01,18.05Z"/>
  </g>
  <g>
    <polygon class="cls-7" points="32.02 36.25 26.25 36.25 29.37 17.58 35.13 17.58 32.02 36.25"/>
    <path class="cls-3" d="m32.02,36.5h-5.76c-.07,0-.14-.03-.19-.09-.05-.06-.07-.13-.06-.2l3.11-18.67c.02-.12.12-.21.25-.21h5.76c.07,0,.14.03.19.09.05.06.07.13.06.2l-3.11,18.67c-.02.12-.12.21-.25.21Zm-5.47-.5h5.26l3.03-18.17h-5.26l-3.03,18.17Z"/>
  </g>
  <g>
    <polygon class="cls-5" points="32.46 6.03 24 5.42 22.52 8.99 32.19 9.69 32.46 6.03"/>
    <path class="cls-4" d="m32.19,9.94s-.01,0-.02,0l-9.67-.7c-.08,0-.15-.05-.2-.12s-.05-.15-.02-.23l1.48-3.57c.04-.1.14-.16.25-.15l8.46.61c.07,0,.13.04.17.09.04.05.06.12.06.18l-.26,3.65c0,.13-.12.23-.25.23Zm-9.31-1.17l9.08.65.23-3.16-8.03-.58-1.28,3.08Z"/>
  </g>
  <g>
    <polygon class="cls-8" points="34.71 9.87 32.19 9.69 32.46 6.03 34.53 6.18 34.71 9.87"/>
    <path class="cls-4" d="m34.71,10.12s-.01,0-.02,0l-2.52-.18c-.07,0-.13-.04-.17-.09-.04-.05-.06-.12-.06-.18l.26-3.65c0-.14.12-.25.27-.23l2.08.15c.13,0,.23.11.23.24l.18,3.69c0,.07-.02.14-.08.19-.05.05-.11.07-.17.07Zm-2.25-.66l1.99.14-.15-3.18-1.61-.12-.23,3.16Z"/>
  </g>
  <g>
    <ellipse class="cls-6" cx="27.63" cy="7.52" rx="1.1" ry=".97" transform="translate(13.75 32.57) rotate(-76.24)"/>
    <path class="cls-4" d="m27.58,8.86c-.09,0-.18-.01-.27-.03-.32-.08-.59-.29-.75-.6-.16-.3-.2-.65-.11-1s.28-.64.56-.83c.29-.2.62-.27.94-.19.65.16,1.04.88.87,1.6-.08.34-.28.64-.56.83-.21.14-.44.22-.68.22Zm.11-2.18c-.13,0-.27.04-.39.13-.18.12-.3.31-.36.54-.06.23-.03.45.07.64.09.18.25.3.43.35.18.04.37,0,.54-.11.18-.12.3-.31.36-.54h0c.11-.45-.11-.9-.5-.99-.05-.01-.1-.02-.15-.02Z"/>
  </g>
</svg>