<?xml version="1.0" encoding="utf-8"?>
<!-- Generator: Adobe Illustrator 28.0.0, SVG Export Plug-In . SVG Version: 6.00 Build 0)  -->
<svg version="1.1" id="Layer_1" xmlns="http://www.w3.org/2000/svg" xmlns:xlink="http://www.w3.org/1999/xlink" x="0px" y="0px"
	 viewBox="0 0 40 40" style="enable-background:new 0 0 40 40;" xml:space="preserve">
<style type="text/css">
	.st0{fill:#0E0E1C;}
	.st1{fill:#FFDA00;}
</style>
<g id="Line_48">
	<path class="st0" d="M37.5,36.5H2.8c-0.1,0-0.2-0.1-0.2-0.2S2.6,36,2.8,36h34.7c0.1,0,0.2,0.1,0.2,0.2S37.6,36.5,37.5,36.5z"/>
</g>
<g>
	<g>
		<g>
			<path class="st1" d="M21.4,36.4c-8.8,0-15.9-7.1-15.9-15.9c0-8.8,7.1-15.9,15.9-15.9c8.8,0,15.9,7.1,15.9,15.9
				C37.3,29.2,30.2,36.4,21.4,36.4z"/>
		</g>
		<g>
			<path d="M21.4,4.8c8.7,0,15.7,7,15.7,15.7v0c0,8.7-7,15.7-15.7,15.7h0c-8.7,0-15.7-7-15.7-15.7v0C5.7,11.8,12.8,4.8,21.4,4.8
				L21.4,4.8 M21.4,4.3c-8.9,0-16.2,7.3-16.2,16.2c0,8.9,7.3,16.2,16.2,16.2c8.9,0,16.2-7.3,16.2-16.2C37.6,11.5,30.3,4.3,21.4,4.3
				L21.4,4.3z"/>
		</g>
	</g>
	<g>
		<g>
			<path class="st1" d="M18.6,36.4c-8.8,0-15.9-7.1-15.9-15.9c0-8.8,7.1-15.9,15.9-15.9c8.8,0,15.9,7.1,15.9,15.9
				C34.5,29.2,27.4,36.4,18.6,36.4z"/>
		</g>
		<g>
			<path class="st0" d="M18.6,4.8c8.7,0,15.7,7,15.7,15.7v0c0,8.7-7,15.7-15.7,15.7h0c-8.7,0-15.7-7-15.7-15.7v0
				C2.9,11.8,9.9,4.8,18.6,4.8L18.6,4.8 M18.6,4.3c-8.9,0-16.2,7.3-16.2,16.2c0,8.9,7.3,16.2,16.2,16.2c8.9,0,16.2-7.3,16.2-16.2
				C34.8,11.5,27.5,4.3,18.6,4.3L18.6,4.3z"/>
		</g>
	</g>
	<path class="st0" d="M28.3,20.4c0-3-2.2-5.1-5.2-5.1s-5.2,2.2-5.2,5.1c0,2.1-1.6,3.6-3.7,3.6s-3.7-1.5-3.7-3.6s1.6-3.6,3.7-3.6h0
		v1.3c0,0.4,0.4,0.6,0.8,0.4l2.9-2.1c0.3-0.2,0.3-0.6,0-0.8l-2.9-2.1c-0.3-0.2-0.8,0-0.8,0.4v1.3h0c-3,0-5.2,2.2-5.2,5.1
		s2.2,5.1,5.2,5.1s5.2-2.2,5.2-5.1c0-2.1,1.6-3.6,3.7-3.6s3.7,1.5,3.7,3.6s-1.6,3.6-3.7,3.6v-1.3c0-0.4-0.4-0.6-0.8-0.4l-2.9,2.1
		c-0.3,0.2-0.3,0.6,0,0.8l2.9,2.1c0.3,0.2,0.8,0,0.8-0.4v-1.3C26.1,25.6,28.3,23.4,28.3,20.4z"/>
</g>
</svg>
